<svg width="135" height="25" viewBox="0 0 135 25" fill="none" xmlns="http://www.w3.org/2000/svg">
<path fill-rule="evenodd" clip-rule="evenodd" d="M10.4304 1.09993C11.143 0.575361 12.1181 0.584738 12.8204 1.12291L19.9932 6.61923C21.027 7.41144 21.027 8.96495 19.9932 9.75717L17.2577 11.8533L20.0383 14.0809C21.0497 14.8911 21.0224 16.4346 19.983 17.2088L12.6203 22.6926C11.8638 23.256 10.8138 23.2105 10.1093 22.5836L4.34828 17.4574L3.54263 16.7675C-0.0526221 13.6886 0.390572 8.01818 4.41313 5.52936L10.4304 1.09993ZM16.1959 11.0027L12.8519 8.32384C12.1379 7.75181 11.1239 7.7409 10.3976 8.29742L7.92337 10.1934C6.88952 10.9856 6.88952 12.5391 7.92337 13.3313L10.4158 15.2412C11.1294 15.788 12.1228 15.788 12.8364 15.2412L16.1777 12.6809L19.209 15.1093C19.5461 15.3793 19.537 15.8938 19.1905 16.1519L11.8279 21.6357C11.5757 21.8235 11.2257 21.8083 10.9909 21.5994L5.22519 16.469L4.40534 15.7668C1.48293 13.2641 1.8498 8.65063 5.13127 6.63803L5.1551 6.62341L11.2169 2.16123C11.4544 1.98637 11.7794 1.9895 12.0135 2.16889L19.1863 7.66521C19.5309 7.92928 19.5309 8.44712 19.1863 8.71119L16.1959 11.0027ZM15.1159 11.8303L12.0295 14.1952C11.7917 14.3775 11.4605 14.3775 11.2227 14.1952L8.73023 12.2853C8.38562 12.0213 8.38562 11.5034 8.73023 11.2394L11.2045 9.3434C11.4466 9.15789 11.7846 9.16153 12.0226 9.3522L15.1159 11.8303Z" fill="white" stroke="white" stroke-width="0.5"/>
<path d="M43.2784 10.1147H40.7898C40.7443 9.79278 40.6515 9.50679 40.5114 9.25679C40.3712 9.003 40.1913 8.78709 39.9716 8.60906C39.7519 8.43103 39.4981 8.29467 39.2102 8.19997C38.9261 8.10528 38.6174 8.05793 38.2841 8.05793C37.6818 8.05793 37.1572 8.20755 36.7102 8.50679C36.2633 8.80225 35.9167 9.23406 35.6705 9.80225C35.4242 10.3666 35.3011 11.0522 35.3011 11.8591C35.3011 12.6886 35.4242 13.3856 35.6705 13.95C35.9205 14.5144 36.2689 14.9405 36.7159 15.2284C37.1629 15.5163 37.6799 15.6602 38.267 15.6602C38.5966 15.6602 38.9015 15.6166 39.1818 15.5295C39.4659 15.4424 39.7178 15.3155 39.9375 15.1488C40.1572 14.9784 40.339 14.7719 40.483 14.5295C40.6307 14.2871 40.733 14.0106 40.7898 13.7L43.2784 13.7113C43.214 14.2454 43.053 14.7606 42.7955 15.2568C42.5417 15.7492 42.1989 16.1905 41.767 16.5807C41.339 16.967 40.8277 17.2738 40.233 17.5011C39.642 17.7246 38.9735 17.8363 38.2273 17.8363C37.1894 17.8363 36.2614 17.6015 35.4432 17.1318C34.6288 16.6621 33.9848 15.9822 33.5114 15.092C33.0417 14.2019 32.8068 13.1242 32.8068 11.8591C32.8068 10.5901 33.0455 9.51058 33.5227 8.62043C34 7.73028 34.6477 7.05225 35.4659 6.58634C36.2841 6.11664 37.2045 5.88179 38.2273 5.88179C38.9015 5.88179 39.5265 5.97649 40.1023 6.16588C40.6818 6.35528 41.1951 6.63179 41.642 6.99543C42.089 7.35528 42.4527 7.79656 42.733 8.31929C43.017 8.84202 43.1989 9.4405 43.2784 10.1147ZM48.9403 17.8477C48.0578 17.8477 47.2945 17.6602 46.6506 17.2852C46.0104 16.9064 45.5161 16.3799 45.1676 15.7057C44.8191 15.0276 44.6449 14.2416 44.6449 13.3477C44.6449 12.4462 44.8191 11.6583 45.1676 10.9841C45.5161 10.306 46.0104 9.77952 46.6506 9.40452C47.2945 9.02573 48.0578 8.83634 48.9403 8.83634C49.8229 8.83634 50.5843 9.02573 51.2244 9.40452C51.8684 9.77952 52.3646 10.306 52.7131 10.9841C53.0616 11.6583 53.2358 12.4462 53.2358 13.3477C53.2358 14.2416 53.0616 15.0276 52.7131 15.7057C52.3646 16.3799 51.8684 16.9064 51.2244 17.2852C50.5843 17.6602 49.8229 17.8477 48.9403 17.8477ZM48.9517 15.9727C49.3532 15.9727 49.6884 15.8591 49.9574 15.6318C50.2263 15.4007 50.429 15.0863 50.5653 14.6886C50.7055 14.2909 50.7756 13.8382 50.7756 13.3307C50.7756 12.8231 50.7055 12.3704 50.5653 11.9727C50.429 11.575 50.2263 11.2606 49.9574 11.0295C49.6884 10.7985 49.3532 10.6829 48.9517 10.6829C48.5464 10.6829 48.2055 10.7985 47.929 11.0295C47.6563 11.2606 47.4498 11.575 47.3097 11.9727C47.1733 12.3704 47.1051 12.8231 47.1051 13.3307C47.1051 13.8382 47.1733 14.2909 47.3097 14.6886C47.4498 15.0863 47.6563 15.4007 47.929 15.6318C48.2055 15.8591 48.5464 15.9727 48.9517 15.9727ZM57.2301 12.6318V17.6772H54.8097V8.94997H57.1165V10.4897H57.2188C57.4119 9.98217 57.7358 9.58065 58.1903 9.2852C58.6449 8.98596 59.196 8.83634 59.8438 8.83634C60.4498 8.83634 60.9782 8.96891 61.429 9.23406C61.8797 9.49922 62.2301 9.878 62.4801 10.3704C62.7301 10.8591 62.8551 11.4424 62.8551 12.1204V17.6772H60.4347V12.5522C60.4384 12.0182 60.3021 11.6015 60.0256 11.3022C59.7491 10.9992 59.3684 10.8477 58.8835 10.8477C58.5578 10.8477 58.2699 10.9178 58.0199 11.0579C57.7737 11.1981 57.5805 11.4026 57.4403 11.6716C57.304 11.9367 57.2339 12.2568 57.2301 12.6318ZM69.4048 8.94997V10.7682H64.1491V8.94997H69.4048ZM65.3423 6.85906H67.7628V14.9954C67.7628 15.2189 67.7969 15.3932 67.8651 15.5182C67.9332 15.6394 68.0279 15.7246 68.1491 15.7738C68.2741 15.8231 68.4181 15.8477 68.581 15.8477C68.6946 15.8477 68.8082 15.8382 68.9219 15.8193C69.0355 15.7966 69.1226 15.7795 69.1832 15.7682L69.5639 17.5693C69.4427 17.6072 69.2723 17.6507 69.0526 17.7C68.8329 17.753 68.5658 17.7852 68.2514 17.7966C67.6681 17.8193 67.1567 17.7416 66.7173 17.5636C66.2817 17.3856 65.9427 17.1091 65.7003 16.7341C65.4579 16.3591 65.3385 15.8856 65.3423 15.3136V6.85906ZM74.8651 17.8477C73.9673 17.8477 73.1946 17.6659 72.5469 17.3022C71.9029 16.9348 71.4067 16.4159 71.0582 15.7454C70.7098 15.0712 70.5355 14.2738 70.5355 13.3534C70.5355 12.4557 70.7098 11.6678 71.0582 10.9897C71.4067 10.3117 71.8973 9.78331 72.5298 9.40452C73.1662 9.02573 73.9124 8.83634 74.7685 8.83634C75.3442 8.83634 75.8802 8.92914 76.3764 9.11475C76.8764 9.29656 77.312 9.57119 77.6832 9.93861C78.0582 10.306 78.3499 10.7682 78.5582 11.325C78.7666 11.878 78.8707 12.5257 78.8707 13.2682V13.9329H71.5014V12.4329H76.5923C76.5923 12.0844 76.5166 11.7757 76.3651 11.5068C76.2135 11.2379 76.0033 11.0276 75.7344 10.8761C75.4692 10.7208 75.1605 10.6432 74.8082 10.6432C74.4408 10.6432 74.1151 10.7284 73.831 10.8988C73.5507 11.0655 73.331 11.2909 73.1719 11.575C73.0128 11.8553 72.9313 12.1678 72.9276 12.5125V13.9386C72.9276 14.3704 73.0071 14.7435 73.1662 15.0579C73.3291 15.3723 73.5582 15.6147 73.8537 15.7852C74.1491 15.9557 74.4995 16.0409 74.9048 16.0409C75.1738 16.0409 75.42 16.003 75.6435 15.9272C75.867 15.8515 76.0582 15.7379 76.2173 15.5863C76.3764 15.4348 76.4976 15.2492 76.581 15.0295L78.8196 15.1772C78.706 15.7151 78.473 16.1848 78.1207 16.5863C77.7723 16.9841 77.3215 17.2947 76.7685 17.5182C76.2192 17.7379 75.5848 17.8477 74.8651 17.8477ZM82.8707 12.6318V17.6772H80.4503V8.94997H82.7571V10.4897H82.8594C83.0526 9.98217 83.3764 9.58065 83.831 9.2852C84.2855 8.98596 84.8366 8.83634 85.4844 8.83634C86.0904 8.83634 86.6188 8.96891 87.0696 9.23406C87.5204 9.49922 87.8707 9.878 88.1207 10.3704C88.3707 10.8591 88.4957 11.4424 88.4957 12.1204V17.6772H86.0753V12.5522C86.0791 12.0182 85.9427 11.6015 85.6662 11.3022C85.3897 10.9992 85.009 10.8477 84.5241 10.8477C84.1984 10.8477 83.9105 10.9178 83.6605 11.0579C83.4143 11.1981 83.2211 11.4026 83.081 11.6716C82.9446 11.9367 82.8745 12.2568 82.8707 12.6318ZM95.0455 8.94997V10.7682H89.7898V8.94997H95.0455ZM90.983 6.85906H93.4034V14.9954C93.4034 15.2189 93.4375 15.3932 93.5057 15.5182C93.5739 15.6394 93.6686 15.7246 93.7898 15.7738C93.9148 15.8231 94.0587 15.8477 94.2216 15.8477C94.3352 15.8477 94.4489 15.8382 94.5625 15.8193C94.6761 15.7966 94.7633 15.7795 94.8239 15.7682L95.2045 17.5693C95.0833 17.6072 94.9129 17.6507 94.6932 17.7C94.4735 17.753 94.2064 17.7852 93.892 17.7966C93.3087 17.8193 92.7973 17.7416 92.358 17.5636C91.9223 17.3856 91.5833 17.1091 91.3409 16.7341C91.0985 16.3591 90.9792 15.8856 90.983 15.3136V6.85906ZM99.2301 6.04088V17.6772H96.8097V6.04088H99.2301ZM103.658 17.842C103.101 17.842 102.605 17.7454 102.169 17.5522C101.733 17.3553 101.389 17.0655 101.135 16.6829C100.885 16.2966 100.76 15.8155 100.76 15.2397C100.76 14.7549 100.849 14.3477 101.027 14.0182C101.205 13.6886 101.447 13.4235 101.754 13.2227C102.061 13.0219 102.41 12.8704 102.8 12.7682C103.194 12.6659 103.607 12.5939 104.038 12.5522C104.546 12.4992 104.955 12.45 105.266 12.4045C105.576 12.3553 105.802 12.2833 105.942 12.1886C106.082 12.0939 106.152 11.9538 106.152 11.7682V11.7341C106.152 11.3742 106.038 11.0958 105.811 10.8988C105.588 10.7019 105.269 10.6034 104.857 10.6034C104.421 10.6034 104.074 10.7 103.817 10.8932C103.559 11.0825 103.389 11.3212 103.305 11.6091L101.067 11.4272C101.18 10.8969 101.404 10.4386 101.737 10.0522C102.071 9.66209 102.5 9.36285 103.027 9.15452C103.557 8.9424 104.171 8.83634 104.868 8.83634C105.353 8.83634 105.817 8.89316 106.26 9.00679C106.707 9.12043 107.103 9.29656 107.447 9.5352C107.796 9.77384 108.071 10.0807 108.271 10.4557C108.472 10.8269 108.572 11.2719 108.572 11.7909V17.6772H106.277V16.467H106.209C106.069 16.7397 105.881 16.9803 105.646 17.1886C105.411 17.3932 105.129 17.5541 104.8 17.6716C104.47 17.7852 104.089 17.842 103.658 17.842ZM104.351 16.1716C104.707 16.1716 105.021 16.1015 105.294 15.9613C105.567 15.8174 105.781 15.6242 105.936 15.3818C106.091 15.1394 106.169 14.8647 106.169 14.5579V13.6318C106.093 13.681 105.989 13.7265 105.857 13.7682C105.728 13.806 105.582 13.842 105.419 13.8761C105.256 13.9064 105.093 13.9348 104.93 13.9613C104.768 13.9841 104.62 14.0049 104.487 14.0238C104.203 14.0655 103.955 14.1318 103.743 14.2227C103.531 14.3136 103.366 14.4367 103.249 14.592C103.131 14.7435 103.072 14.9329 103.072 15.1602C103.072 15.4897 103.192 15.7416 103.43 15.9159C103.673 16.0863 103.98 16.1716 104.351 16.1716ZM111.632 20.95C111.325 20.95 111.037 20.9254 110.768 20.8761C110.503 20.8307 110.284 20.7719 110.109 20.7L110.655 18.8932C110.939 18.9803 111.195 19.0276 111.422 19.0352C111.653 19.0428 111.852 18.9897 112.018 18.8761C112.189 18.7625 112.327 18.5693 112.433 18.2966L112.575 17.9272L109.445 8.94997H111.99L113.797 15.3591H113.888L115.712 8.94997H118.274L114.882 18.6204C114.719 19.0901 114.498 19.4992 114.217 19.8477C113.941 20.2 113.59 20.4708 113.166 20.6602C112.742 20.8534 112.231 20.95 111.632 20.95ZM123.209 17.8477C122.311 17.8477 121.538 17.6659 120.891 17.3022C120.247 16.9348 119.75 16.4159 119.402 15.7454C119.054 15.0712 118.879 14.2738 118.879 13.3534C118.879 12.4557 119.054 11.6678 119.402 10.9897C119.75 10.3117 120.241 9.78331 120.874 9.40452C121.51 9.02573 122.256 8.83634 123.112 8.83634C123.688 8.83634 124.224 8.92914 124.72 9.11475C125.22 9.29656 125.656 9.57119 126.027 9.93861C126.402 10.306 126.694 10.7682 126.902 11.325C127.11 11.878 127.214 12.5257 127.214 13.2682V13.9329H119.845V12.4329H124.936C124.936 12.0844 124.86 11.7757 124.709 11.5068C124.557 11.2379 124.347 11.0276 124.078 10.8761C123.813 10.7208 123.504 10.6432 123.152 10.6432C122.785 10.6432 122.459 10.7284 122.175 10.8988C121.894 11.0655 121.675 11.2909 121.516 11.575C121.357 11.8553 121.275 12.1678 121.271 12.5125V13.9386C121.271 14.3704 121.351 14.7435 121.51 15.0579C121.673 15.3723 121.902 15.6147 122.197 15.7852C122.493 15.9557 122.843 16.0409 123.249 16.0409C123.518 16.0409 123.764 16.003 123.987 15.9272C124.211 15.8515 124.402 15.7379 124.561 15.5863C124.72 15.4348 124.841 15.2492 124.925 15.0295L127.163 15.1772C127.05 15.7151 126.817 16.1848 126.464 16.5863C126.116 16.9841 125.665 17.2947 125.112 17.5182C124.563 17.7379 123.929 17.8477 123.209 17.8477ZM128.794 17.6772V8.94997H131.141V10.4727H131.232C131.391 9.93103 131.658 9.52194 132.033 9.24543C132.408 8.96512 132.839 8.82497 133.328 8.82497C133.449 8.82497 133.58 8.83255 133.72 8.8477C133.86 8.86285 133.983 8.88369 134.089 8.9102V11.0579C133.976 11.0238 133.819 10.9935 133.618 10.967C133.417 10.9405 133.233 10.9272 133.067 10.9272C132.711 10.9272 132.393 11.0049 132.112 11.1602C131.836 11.3117 131.616 11.5238 131.453 11.7966C131.294 12.0693 131.214 12.3837 131.214 12.7397V17.6772H128.794Z" fill="white"/>
</svg>
