<svg width="138" height="32" viewBox="0 0 138 32" fill="none" xmlns="http://www.w3.org/2000/svg">
<path d="M46.0014 23L42.3707 9.90909H44.4482L46.9986 20.0469H47.12L49.7727 9.90909H51.831L54.4837 20.0533H54.6051L57.1491 9.90909H59.233L55.5959 23H53.608L50.853 13.1946H50.7507L47.9957 23H46.0014ZM64.0494 23.1982C63.1289 23.1982 62.3256 22.9872 61.6396 22.5653C60.9535 22.1435 60.4208 21.5533 60.0415 20.7947C59.6623 20.0362 59.4727 19.1499 59.4727 18.1357C59.4727 17.1172 59.6623 16.2266 60.0415 15.4638C60.4208 14.701 60.9535 14.1087 61.6396 13.6868C62.3256 13.2649 63.1289 13.054 64.0494 13.054C64.9698 13.054 65.7731 13.2649 66.4592 13.6868C67.1452 14.1087 67.6779 14.701 68.0572 15.4638C68.4364 16.2266 68.6261 17.1172 68.6261 18.1357C68.6261 19.1499 68.4364 20.0362 68.0572 20.7947C67.6779 21.5533 67.1452 22.1435 66.4592 22.5653C65.7731 22.9872 64.9698 23.1982 64.0494 23.1982ZM64.0558 21.5938C64.6523 21.5938 65.1467 21.4361 65.5387 21.1207C65.9308 20.8054 66.2205 20.3857 66.408 19.8615C66.5998 19.3374 66.6957 18.7599 66.6957 18.1293C66.6957 17.5028 66.5998 16.9276 66.408 16.4034C66.2205 15.875 65.9308 15.451 65.5387 15.1314C65.1467 14.8118 64.6523 14.652 64.0558 14.652C63.4549 14.652 62.9563 14.8118 62.56 15.1314C62.168 15.451 61.8761 15.875 61.6843 16.4034C61.4968 16.9276 61.4031 17.5028 61.4031 18.1293C61.4031 18.7599 61.4968 19.3374 61.6843 19.8615C61.8761 20.3857 62.168 20.8054 62.56 21.1207C62.9563 21.4361 63.4549 21.5938 64.0558 21.5938ZM70.7594 23V13.1818H72.6067V14.7415H72.709C72.888 14.2131 73.2033 13.7976 73.655 13.495C74.111 13.1882 74.6266 13.0348 75.2019 13.0348C75.3212 13.0348 75.4618 13.0391 75.6238 13.0476C75.79 13.0561 75.9199 13.0668 76.0137 13.0795V14.9077C75.937 14.8864 75.8006 14.8629 75.6046 14.8374C75.4086 14.8075 75.2125 14.7926 75.0165 14.7926C74.5648 14.7926 74.1621 14.8885 73.8084 15.0803C73.459 15.2678 73.182 15.5298 72.9775 15.8665C72.7729 16.1989 72.6706 16.5781 72.6706 17.0043V23H70.7594ZM79.4254 19.6697L79.4126 17.3366H79.745L83.657 13.1818H85.9453L81.4837 17.9119H81.1832L79.4254 19.6697ZM77.6676 23V9.90909H79.5788V23H77.6676ZM83.8679 23L80.3523 18.3338L81.669 16.9979L86.2138 23H83.8679ZM91.5144 23.1982C90.5471 23.1982 89.714 22.9915 89.0151 22.5781C88.3205 22.1605 87.7836 21.5746 87.4043 20.8203C87.0293 20.0618 86.8418 19.1733 86.8418 18.1548C86.8418 17.1491 87.0293 16.2628 87.4043 15.4957C87.7836 14.7287 88.312 14.13 88.9895 13.6996C89.6713 13.2692 90.4682 13.054 91.3801 13.054C91.9341 13.054 92.4711 13.1456 92.9909 13.3288C93.5108 13.5121 93.9775 13.7997 94.3908 14.1918C94.8042 14.5838 95.1301 15.093 95.3688 15.7195C95.6074 16.3416 95.7267 17.098 95.7267 17.9886V18.6662H87.9221V17.2344H93.8539C93.8539 16.7315 93.7516 16.2862 93.5471 15.8984C93.3425 15.5064 93.0549 15.1974 92.6841 14.9716C92.3176 14.7457 91.8873 14.6328 91.3929 14.6328C90.856 14.6328 90.3873 14.7649 89.9867 15.0291C89.5904 15.2891 89.2836 15.63 89.0662 16.0518C88.8532 16.4695 88.7466 16.9233 88.7466 17.4134V18.532C88.7466 19.1882 88.8617 19.7464 89.0918 20.2067C89.3262 20.6669 89.6522 21.0185 90.0698 21.2614C90.4874 21.5 90.9753 21.6193 91.5336 21.6193C91.8958 21.6193 92.226 21.5682 92.5243 21.4659C92.8226 21.3594 93.0804 21.2017 93.2978 20.9929C93.5151 20.7841 93.6813 20.5263 93.7963 20.2195L95.6053 20.5455C95.4604 21.0781 95.2005 21.5447 94.8255 21.9453C94.4547 22.3416 93.9881 22.6506 93.4256 22.8722C92.8674 23.0895 92.2303 23.1982 91.5144 23.1982ZM97.8473 23V13.1818H99.6946V14.7415H99.7969C99.9759 14.2131 100.291 13.7976 100.743 13.495C101.199 13.1882 101.714 13.0348 102.29 13.0348C102.409 13.0348 102.55 13.0391 102.712 13.0476C102.878 13.0561 103.008 13.0668 103.102 13.0795V14.9077C103.025 14.8864 102.888 14.8629 102.692 14.8374C102.496 14.8075 102.3 14.7926 102.104 14.7926C101.653 14.7926 101.25 14.8885 100.896 15.0803C100.547 15.2678 100.27 15.5298 100.065 15.8665C99.8608 16.1989 99.7585 16.5781 99.7585 17.0043V23H97.8473ZM115.558 9.90909V23H113.167L107.472 14.7607H107.376V23H104.608V9.90909H107.037L112.688 18.142H112.803V9.90909H115.558ZM120.593 23.1854C119.967 23.1854 119.409 23.0767 118.919 22.8594C118.429 22.6378 118.041 22.3118 117.755 21.8814C117.474 21.4467 117.333 20.9055 117.333 20.2578C117.333 19.7124 117.434 19.2543 117.634 18.8835C117.834 18.5128 118.107 18.2145 118.452 17.9886C118.797 17.7628 119.189 17.5923 119.628 17.4773C120.071 17.3622 120.536 17.2812 121.022 17.2344C121.593 17.1747 122.053 17.1193 122.402 17.0682C122.752 17.0128 123.005 16.9318 123.163 16.8253C123.321 16.7187 123.4 16.5611 123.4 16.3523V16.3139C123.4 15.9091 123.272 15.5959 123.016 15.3743C122.765 15.1527 122.407 15.0419 121.942 15.0419C121.452 15.0419 121.062 15.1506 120.772 15.3679C120.483 15.581 120.291 15.8494 120.197 16.1733L117.679 15.9688C117.806 15.3722 118.058 14.8565 118.433 14.4219C118.808 13.983 119.292 13.6463 119.884 13.4119C120.48 13.1733 121.171 13.054 121.955 13.054C122.5 13.054 123.022 13.1179 123.521 13.2457C124.024 13.3736 124.469 13.5717 124.857 13.8402C125.249 14.1087 125.558 14.4538 125.784 14.8757C126.01 15.2933 126.123 15.794 126.123 16.3778V23H123.54V21.6385H123.463C123.306 21.9453 123.095 22.2159 122.831 22.4503C122.566 22.6804 122.249 22.8615 121.878 22.9936C121.507 23.1214 121.079 23.1854 120.593 23.1854ZM121.373 21.3061C121.774 21.3061 122.127 21.2273 122.434 21.0696C122.741 20.9077 122.982 20.6903 123.157 20.4176C123.331 20.1449 123.419 19.8359 123.419 19.4908V18.4489C123.333 18.5043 123.216 18.5554 123.067 18.6023C122.922 18.6449 122.758 18.6854 122.575 18.7237C122.392 18.7578 122.208 18.7898 122.025 18.8196C121.842 18.8452 121.676 18.8686 121.527 18.8899C121.207 18.9368 120.928 19.0114 120.689 19.1136C120.451 19.2159 120.265 19.3544 120.133 19.5291C120.001 19.6996 119.935 19.9126 119.935 20.1683C119.935 20.5391 120.069 20.8224 120.338 21.0185C120.61 21.2102 120.956 21.3061 121.373 21.3061ZM137.037 13.1818L133.604 23H130.536L127.104 13.1818H129.98L132.019 20.2067H132.121L134.154 13.1818H137.037Z" fill="black"/>
<g clip-path="url(#clip0_869_279)">
<path d="M16 32C24.8366 32 32 24.8366 32 16C32 7.16344 24.8366 0 16 0C7.16344 0 0 7.16344 0 16C0 24.8366 7.16344 32 16 32Z" fill="black"/>
<path d="M26.6369 8.23648C26.0347 8.83861 25.0535 8.8377 24.4512 8.23557C23.8501 7.63434 23.8491 6.65309 24.4512 6.05082C25.0535 5.44869 26.0347 5.44973 26.6358 6.05082C27.2381 6.65309 27.239 7.63434 26.6369 8.23648ZM26.1687 7.00413L25.2635 7.20519L25.2835 6.89314C25.2875 6.83114 25.2725 6.78007 25.2284 6.73614C25.1515 6.65907 25.0254 6.65504 24.9474 6.73302C24.9114 6.76902 24.8934 6.8071 24.8884 6.87416L24.8533 7.34529C24.8484 7.42431 24.8654 7.49528 24.9194 7.54934C24.9724 7.60237 25.0494 7.62134 25.1255 7.60939L26.2618 7.38922C26.3168 7.38025 26.3557 7.35725 26.3838 7.32918C26.4608 7.25224 26.4509 7.12617 26.3738 7.0491C26.3218 6.99711 26.2558 6.98515 26.1687 7.00413Z" fill="white"/>
<path d="M22.5531 10.8591C22.785 10.6273 22.785 10.2513 22.5531 10.0195C22.3213 9.78758 21.9453 9.78758 21.7135 10.0195L20.4199 11.313C20.188 11.5449 20.188 11.9208 20.4199 12.1527C20.6518 12.3846 21.0277 12.3846 21.2596 12.1527L22.5531 10.8591Z" fill="white"/>
<path d="M12.1536 21.2607C12.3857 21.0286 12.3857 20.6523 12.1536 20.4202C11.9215 20.1881 11.5453 20.1881 11.3132 20.4202L10.0202 21.7132C9.7881 21.9453 9.78809 22.3216 10.0202 22.5537C10.2523 22.7857 10.6285 22.7857 10.8606 22.5537L12.1536 21.2607Z" fill="white"/>
<path d="M30.6949 9.6582L30.8123 9.93845L30.9373 10.251L31.1873 10.9541L20.3239 21.7136C20.0911 21.9445 19.7154 21.9437 19.4835 21.7118C19.2509 21.4793 19.2509 21.1022 19.4835 20.8697L30.6949 9.6582Z" fill="white"/>
<path d="M11.6009 10.3641C11.8338 10.1332 12.2095 10.1339 12.4414 10.3658C12.6739 10.5984 12.6739 10.9754 12.4414 11.2081L1.30564 22.3437L1.1875 22.0632L1.0625 21.7507L0.875 21.2507L0.8125 21.0632L11.6009 10.3641Z" fill="white"/>
<mask id="mask0_869_279" style="mask-type:luminance" maskUnits="userSpaceOnUse" x="13" y="13" width="6" height="6">
<path d="M18.8721 13.5996H13.6001V18.7611H18.8721V13.5996Z" fill="white"/>
</mask>
<g mask="url(#mask0_869_279)">
<path d="M14.1938 15.9699H15.3694C15.7674 15.9699 15.9626 15.7743 15.9626 15.3649V14.2102C15.9626 13.8003 15.7674 13.6074 15.3694 13.6074H14.1938C13.7958 13.6074 13.6001 13.8003 13.6001 14.2102V15.3649C13.6001 15.7743 13.7958 15.9699 14.1938 15.9699ZM14.1839 15.5338C14.0838 15.5338 14.0363 15.484 14.0363 15.3793V14.1958C14.0363 14.0929 14.0838 14.0437 14.1839 14.0437H15.377C15.4772 14.0437 15.5269 14.0929 15.5269 14.1958V15.3793C15.5269 15.484 15.4772 15.5338 15.377 15.5338H14.1839ZM14.5333 15.0917H15.0261C15.0668 15.0917 15.0843 15.0741 15.0843 15.0252V14.5472C15.0843 14.501 15.0668 14.4834 15.0261 14.4834H14.5333C14.4909 14.4834 14.4761 14.501 14.4761 14.5472V15.0252C14.4761 15.0741 14.4909 15.0917 14.5333 15.0917ZM16.989 15.9699H18.1623C18.5604 15.9699 18.7561 15.7743 18.7561 15.3649V14.2102C18.7561 13.8003 18.5604 13.6074 18.1623 13.6074H16.989C16.5887 13.6074 16.3935 13.8003 16.3935 14.2102V15.3649C16.3935 15.7743 16.5887 15.9699 16.989 15.9699ZM16.9792 15.5338C16.8767 15.5338 16.8293 15.484 16.8293 15.3793V14.1958C16.8293 14.0929 16.8767 14.0437 16.9792 14.0437H18.1723C18.2724 14.0437 18.3198 14.0929 18.3198 14.1958V15.3793C18.3198 15.484 18.2724 15.5338 18.1723 15.5338H16.9792ZM17.3409 15.0917H17.8331C17.8766 15.0917 17.8937 15.0741 17.8937 15.0252V14.5472C17.8937 14.501 17.8766 14.4834 17.8331 14.4834H17.3409C17.3002 14.4834 17.2859 14.501 17.2859 14.5472V15.0252C17.2859 15.0741 17.3002 15.0917 17.3409 15.0917ZM14.1938 18.7634H15.3694C15.7674 18.7634 15.9626 18.57 15.9626 18.1602V17.0032C15.9626 16.5961 15.7674 16.4004 15.3694 16.4004H14.1938C13.7958 16.4004 13.6001 16.5961 13.6001 17.0032V18.1602C13.6001 18.57 13.7958 18.7634 14.1938 18.7634ZM14.1839 18.3272C14.0838 18.3272 14.0363 18.2775 14.0363 18.175V16.991C14.0363 16.8863 14.0838 16.8366 14.1839 16.8366H15.377C15.4772 16.8366 15.5269 16.8863 15.5269 16.991V18.175C15.5269 18.2775 15.4772 18.3272 15.377 18.3272H14.1839ZM14.5333 17.8869H15.0261C15.0668 17.8869 15.0843 17.8698 15.0843 17.8181V17.3424C15.0843 17.2963 15.0668 17.2792 15.0261 17.2792H14.5333C14.4909 17.2792 14.4761 17.2963 14.4761 17.3424V17.8181C14.4761 17.8698 14.4909 17.8869 14.5333 17.8869ZM16.5874 17.1377H17.08C17.1207 17.1377 17.1383 17.1206 17.1383 17.0717V16.5938C17.1383 16.5471 17.1207 16.53 17.08 16.53H16.5874C16.5449 16.53 16.5301 16.5471 16.5301 16.5938V17.0717C16.5301 17.1206 16.5449 17.1377 16.5874 17.1377ZM18.0661 17.1377H18.5583C18.5995 17.1377 18.6165 17.1206 18.6165 17.0717V16.5938C18.6165 16.5471 18.5995 16.53 18.5583 16.53H18.0661C18.0231 16.53 18.0088 16.5471 18.0088 16.5938V17.0717C18.0088 17.1206 18.0231 17.1377 18.0661 17.1377ZM17.3336 17.8784H17.8258C17.867 17.8784 17.8846 17.8609 17.8846 17.8096V17.334C17.8846 17.2878 17.867 17.2703 17.8258 17.2703H17.3336C17.2907 17.2703 17.2764 17.2878 17.2764 17.334V17.8096C17.2764 17.8609 17.2907 17.8784 17.3336 17.8784ZM16.5874 18.6164H17.08C17.1207 18.6164 17.1383 18.5989 17.1383 18.5499V18.0719C17.1383 18.0258 17.1207 18.0082 17.08 18.0082H16.5874C16.5449 18.0082 16.5301 18.0258 16.5301 18.0719V18.5499C16.5301 18.5989 16.5449 18.6164 16.5874 18.6164ZM18.0661 18.6164H18.5583C18.5995 18.6164 18.6165 18.5989 18.6165 18.5499V18.0719C18.6165 18.0258 18.5995 18.0082 18.5583 18.0082H18.0661C18.0231 18.0082 18.0088 18.0258 18.0088 18.0719V18.5499C18.0088 18.5989 18.0231 18.6164 18.0661 18.6164Z" fill="white"/>
</g>
</g>
<path d="M8.23697 26.6369C7.63483 27.239 6.65358 27.2381 6.05131 26.636C5.45021 26.0347 5.44917 25.0535 6.05131 24.4512C6.65358 23.8491 7.63483 23.8501 8.23592 24.4512C8.83819 25.0535 8.8391 26.0347 8.23697 26.6369ZM7.76882 25.4045L6.8636 25.6056L6.88362 25.2935C6.88765 25.2315 6.87257 25.1805 6.82851 25.1365C6.75157 25.0595 6.6255 25.0554 6.54752 25.1334C6.51152 25.1694 6.49346 25.2075 6.48852 25.2746L6.45343 25.7457C6.44849 25.8247 6.46551 25.8957 6.51945 25.9497C6.57248 26.0028 6.64955 26.0217 6.72558 26.0098L7.86188 25.7896C7.91686 25.7806 7.95585 25.7576 7.98392 25.7296C8.06086 25.6526 8.05098 25.5266 7.97391 25.4495C7.92193 25.3975 7.8559 25.3855 7.76882 25.4045Z" fill="white"/>
<defs>
<clipPath id="clip0_869_279">
<rect width="32" height="32" fill="white"/>
</clipPath>
</defs>
</svg>
